<svg width="512" height="512" viewBox="0 0 512 512" fill="none" xmlns="http://www.w3.org/2000/svg">
  <defs>
    <linearGradient id="gradient" x1="0%" y1="0%" x2="100%" y2="100%">
      <stop offset="0%" stop-color="#F43F5E" />
      <stop offset="100%" stop-color="#EC4899" />
    </linearGradient>
  </defs>
  <rect width="512" height="512" rx="128" fill="white"/>
  <path d="M384 160C384 107.04 341.44 64 288 64H160C106.56 64 64 107.04 64 160V288C64 341.44 106.56 384 160 384H288L384 480V384C436.96 384 448 341.44 448 288V160C448 107.04 436.96 64 384 64V160Z" fill="url(#gradient)"/>
  <path d="M128 192C144.016 192 160 176.016 160 160C160 143.984 144.016 128 128 128C111.984 128 96 143.984 96 160C96 176.016 111.984 192 128 192Z" fill="white"/>
  <path d="M224 192C240.016 192 256 176.016 256 160C256 143.984 240.016 128 224 128C207.984 128 192 143.984 192 160C192 176.016 207.984 192 224 192Z" fill="white"/>
  <path d="M320 192C336.016 192 352 176.016 352 160C352 143.984 336.016 128 320 128C303.984 128 288 143.984 288 160C288 176.016 303.984 192 320 192Z" fill="white"/>
  <path d="M160 240H288C288 284.16 252.16 320 208 320H160C160 275.84 160 240 160 240Z" fill="white"/>
</svg> 